<?xml version="1.0" encoding="UTF-8" standalone="no"?>
<!DOCTYPE svg PUBLIC "-//W3C//DTD SVG 1.1//EN"
 "http://www.w3.org/Graphics/SVG/1.1/DTD/svg11.dtd">
<!-- Generated by graphviz version 13.1.0 (20250701.0955)
 -->
<!-- Pages: 1 -->
<svg width="823pt" height="476pt"
 viewBox="0.00 0.00 823.00 476.00" xmlns="http://www.w3.org/2000/svg" xmlns:xlink="http://www.w3.org/1999/xlink">
<g id="graph0" class="graph" transform="scale(1 1) rotate(0) translate(4 471.55)">
<polygon fill="white" stroke="none" points="-4,4 -4,-471.55 818.92,-471.55 818.92,4 -4,4"/>
<!-- height_0 -->
<g id="node1" class="node">
<title>height_0</title>
<polygon fill="lightgray" stroke="black" points="438.92,-467.55 392.17,-467.55 392.17,-449.05 438.92,-449.05 438.92,-467.55"/>
<text xml:space="preserve" text-anchor="middle" x="415.54" y="-455" font-family="Times New Roman,serif" font-size="9.00">height_0</text>
</g>
<!-- height_1 -->
<g id="node2" class="node">
<title>height_1</title>
<polygon fill="lightgray" stroke="black" points="503.92,-467.55 457.17,-467.55 457.17,-449.05 503.92,-449.05 503.92,-467.55"/>
<text xml:space="preserve" text-anchor="middle" x="480.54" y="-455" font-family="Times New Roman,serif" font-size="9.00">height_1</text>
</g>
<!-- 1066 -->
<g id="node17" class="node">
<title>1066</title>
<ellipse fill="white" stroke="black" cx="480.54" cy="-389.01" rx="24.04" ry="24.04"/>
<text xml:space="preserve" text-anchor="middle" x="480.54" y="-385.71" font-family="Times New Roman,serif" font-size="9.00">1066</text>
</g>
<!-- height_1&#45;&gt;1066 -->
<g id="edge11" class="edge">
<title>height_1&#45;&gt;1066</title>
<path fill="none" stroke="red" stroke-width="0.58" stroke-dasharray="1,5" d="M480.54,-448.78C480.54,-442.43 480.54,-433.29 480.54,-424.12"/>
<polygon fill="red" stroke="red" stroke-width="0.58" points="484.04,-424.36 480.54,-414.36 477.04,-424.36 484.04,-424.36"/>
</g>
<!-- 1610 -->
<g id="node18" class="node">
<title>1610</title>
<ellipse fill="white" stroke="black" cx="624.54" cy="-304.93" rx="24.04" ry="24.04"/>
<text xml:space="preserve" text-anchor="middle" x="624.54" y="-301.63" font-family="Times New Roman,serif" font-size="9.00">1610</text>
</g>
<!-- height_1&#45;&gt;1610 -->
<g id="edge25" class="edge">
<title>height_1&#45;&gt;1610</title>
<path fill="none" stroke="green" stroke-width="0.42" d="M504.1,-451.74C525.69,-445.55 557.27,-433.62 577.54,-413.05 597.69,-392.61 609.92,-362.08 616.83,-338.84"/>
<polygon fill="green" stroke="green" stroke-width="0.42" points="620.17,-339.91 619.47,-329.34 613.42,-338.04 620.17,-339.91"/>
</g>
<!-- 209 -->
<g id="node19" class="node">
<title>209</title>
<ellipse fill="white" stroke="black" cx="331.54" cy="-139.94" rx="20.86" ry="20.86"/>
<text xml:space="preserve" text-anchor="middle" x="331.54" y="-136.64" font-family="Times New Roman,serif" font-size="9.00">209</text>
</g>
<!-- height_1&#45;&gt;209 -->
<g id="edge7" class="edge">
<title>height_1&#45;&gt;209</title>
<path fill="none" stroke="green" stroke-width="0.18" stroke-dasharray="1,5" d="M456.84,-450.93C453.73,-450.23 450.57,-449.58 447.54,-449.05 366.8,-435.08 142.28,-466.94 80.54,-413.05 7.82,-349.59 -0.43,-271.63 60.54,-196.8 90.51,-160.03 235.54,-146.75 300.26,-142.6"/>
<polygon fill="green" stroke="green" stroke-width="0.18" points="300.24,-146.11 310.01,-142.01 299.82,-139.12 300.24,-146.11"/>
</g>
<!-- height_2 -->
<g id="node3" class="node">
<title>height_2</title>
<polygon fill="lightgray" stroke="black" points="257.92,-230.1 211.17,-230.1 211.17,-211.6 257.92,-211.6 257.92,-230.1"/>
<text xml:space="preserve" text-anchor="middle" x="234.54" y="-217.55" font-family="Times New Roman,serif" font-size="9.00">height_2</text>
</g>
<!-- height_2&#45;&gt;209 -->
<g id="edge6" class="edge">
<title>height_2&#45;&gt;209</title>
<path fill="none" stroke="red" stroke-width="0.24" stroke-dasharray="1,5" d="M245.29,-211.1C260.23,-198.95 287.66,-176.64 307.58,-160.43"/>
<polygon fill="red" stroke="red" stroke-width="0.24" points="309.77,-163.17 315.32,-154.14 305.35,-157.74 309.77,-163.17"/>
</g>
<!-- height_3 -->
<g id="node4" class="node">
<title>height_3</title>
<polygon fill="lightgray" stroke="black" points="322.92,-230.1 276.17,-230.1 276.17,-211.6 322.92,-211.6 322.92,-230.1"/>
<text xml:space="preserve" text-anchor="middle" x="299.54" y="-217.55" font-family="Times New Roman,serif" font-size="9.00">height_3</text>
</g>
<!-- height_3&#45;&gt;209 -->
<g id="edge5" class="edge">
<title>height_3&#45;&gt;209</title>
<path fill="none" stroke="green" stroke-width="0.11" d="M303.09,-211.1C307.2,-200.96 314.18,-183.75 320.2,-168.91"/>
<polygon fill="green" stroke="green" stroke-width="0.11" points="323.4,-170.33 323.92,-159.75 316.91,-167.7 323.4,-170.33"/>
</g>
<!-- height_4 -->
<g id="node5" class="node">
<title>height_4</title>
<polygon fill="lightgray" stroke="black" points="684.92,-467.55 638.17,-467.55 638.17,-449.05 684.92,-449.05 684.92,-467.55"/>
<text xml:space="preserve" text-anchor="middle" x="661.54" y="-455" font-family="Times New Roman,serif" font-size="9.00">height_4</text>
</g>
<!-- height_5 -->
<g id="node6" class="node">
<title>height_5</title>
<polygon fill="lightgray" stroke="black" points="749.92,-467.55 703.17,-467.55 703.17,-449.05 749.92,-449.05 749.92,-467.55"/>
<text xml:space="preserve" text-anchor="middle" x="726.54" y="-455" font-family="Times New Roman,serif" font-size="9.00">height_5</text>
</g>
<!-- height_6 -->
<g id="node7" class="node">
<title>height_6</title>
<polygon fill="lightgray" stroke="black" points="814.92,-467.55 768.17,-467.55 768.17,-449.05 814.92,-449.05 814.92,-467.55"/>
<text xml:space="preserve" text-anchor="middle" x="791.54" y="-455" font-family="Times New Roman,serif" font-size="9.00">height_6</text>
</g>
<!-- height_7 -->
<g id="node8" class="node">
<title>height_7</title>
<polygon fill="lightgray" stroke="black" points="387.92,-230.1 341.17,-230.1 341.17,-211.6 387.92,-211.6 387.92,-230.1"/>
<text xml:space="preserve" text-anchor="middle" x="364.54" y="-217.55" font-family="Times New Roman,serif" font-size="9.00">height_7</text>
</g>
<!-- height_7&#45;&gt;209 -->
<g id="edge1" class="edge">
<title>height_7&#45;&gt;209</title>
<path fill="none" stroke="green" stroke-width="0.33" stroke-dasharray="1,5" d="M360.88,-211.1C356.64,-200.96 349.44,-183.75 343.24,-168.91"/>
<polygon fill="green" stroke="green" stroke-width="0.33" points="346.62,-167.93 339.54,-160.06 340.17,-170.63 346.62,-167.93"/>
</g>
<!-- height_8 -->
<g id="node9" class="node">
<title>height_8</title>
<polygon fill="lightgray" stroke="black" points="568.92,-398.26 522.17,-398.26 522.17,-379.76 568.92,-379.76 568.92,-398.26"/>
<text xml:space="preserve" text-anchor="middle" x="545.54" y="-385.71" font-family="Times New Roman,serif" font-size="9.00">height_8</text>
</g>
<!-- 1433 -->
<g id="node22" class="node">
<title>1433</title>
<ellipse fill="white" stroke="black" cx="546.54" cy="-304.93" rx="24.04" ry="24.04"/>
<text xml:space="preserve" text-anchor="middle" x="546.54" y="-301.63" font-family="Times New Roman,serif" font-size="9.00">1433</text>
</g>
<!-- height_8&#45;&gt;1433 -->
<g id="edge15" class="edge">
<title>height_8&#45;&gt;1433</title>
<path fill="none" stroke="red" stroke-width="0.48" d="M545.65,-379.54C545.76,-370.2 545.95,-354.59 546.13,-340.14"/>
<polygon fill="red" stroke="red" stroke-width="0.48" points="549.63,-340.21 546.25,-330.17 542.63,-340.12 549.63,-340.21"/>
</g>
<!-- height_9 -->
<g id="node10" class="node">
<title>height_9</title>
<polygon fill="lightgray" stroke="black" points="619.92,-467.55 573.17,-467.55 573.17,-449.05 619.92,-449.05 619.92,-467.55"/>
<text xml:space="preserve" text-anchor="middle" x="596.54" y="-455" font-family="Times New Roman,serif" font-size="9.00">height_9</text>
</g>
<!-- 1318 -->
<g id="node15" class="node">
<title>1318</title>
<ellipse fill="white" stroke="black" cx="648.54" cy="-389.01" rx="24.04" ry="24.04"/>
<text xml:space="preserve" text-anchor="middle" x="648.54" y="-385.71" font-family="Times New Roman,serif" font-size="9.00">1318</text>
</g>
<!-- height_9&#45;&gt;1318 -->
<g id="edge12" class="edge">
<title>height_9&#45;&gt;1318</title>
<path fill="none" stroke="green" stroke-width="0.19" d="M603.13,-448.78C609.37,-440.7 619.09,-428.12 627.94,-416.68"/>
<polygon fill="green" stroke="green" stroke-width="0.19" points="630.64,-418.91 633.98,-408.85 625.1,-414.63 630.64,-418.91"/>
</g>
<!-- height_9&#45;&gt;1066 -->
<g id="edge10" class="edge">
<title>height_9&#45;&gt;1066</title>
<path fill="none" stroke="green" stroke-width="0.64" stroke-dasharray="1,5" d="M578.71,-448.58C561.67,-440.06 535.4,-426.45 513.54,-413.05 511.99,-412.1 510.4,-411.1 508.82,-410.08"/>
<polygon fill="green" stroke="green" stroke-width="0.64" points="510.88,-407.25 500.63,-404.59 506.99,-413.06 510.88,-407.25"/>
</g>
<!-- holes -->
<g id="node11" class="node">
<title>holes</title>
<polygon fill="lightgray" stroke="black" points="123.92,-398.26 89.17,-398.26 89.17,-379.76 123.92,-379.76 123.92,-398.26"/>
<text xml:space="preserve" text-anchor="middle" x="106.54" y="-385.71" font-family="Times New Roman,serif" font-size="9.00">holes</text>
</g>
<!-- move_score -->
<g id="node14" class="node">
<title>move_score</title>
<ellipse fill="lightblue" stroke="black" cx="41.54" cy="-41.54" rx="41.54" ry="41.54"/>
<text xml:space="preserve" text-anchor="middle" x="41.54" y="-38.24" font-family="Times New Roman,serif" font-size="9.00">move_score</text>
</g>
<!-- holes&#45;&gt;move_score -->
<g id="edge9" class="edge">
<title>holes&#45;&gt;move_score</title>
<path fill="none" stroke="red" stroke-width="0.26" stroke-dasharray="1,5" d="M97.5,-379.33C86.87,-368.56 69.53,-349.15 60.54,-328.97 26.38,-252.32 28.94,-152.58 34.69,-93.29"/>
<polygon fill="red" stroke="red" stroke-width="0.26" points="38.16,-93.76 35.72,-83.45 31.2,-93.03 38.16,-93.76"/>
</g>
<!-- holes&#45;&gt;209 -->
<g id="edge2" class="edge">
<title>holes&#45;&gt;209</title>
<path fill="none" stroke="red" stroke-width="0.27" d="M109.69,-379.53C122.81,-344.3 173.18,-210.73 187.54,-196.8 218.85,-166.45 268.49,-152.12 300.53,-145.7"/>
<polygon fill="red" stroke="red" stroke-width="0.27" points="301.09,-149.16 310.28,-143.89 299.81,-142.28 301.09,-149.16"/>
</g>
<!-- 1527 -->
<g id="node21" class="node">
<title>1527</title>
<ellipse fill="white" stroke="black" cx="93.54" cy="-304.93" rx="24.04" ry="24.04"/>
<text xml:space="preserve" text-anchor="middle" x="93.54" y="-301.63" font-family="Times New Roman,serif" font-size="9.00">1527</text>
</g>
<!-- holes&#45;&gt;1527 -->
<g id="edge22" class="edge">
<title>holes&#45;&gt;1527</title>
<path fill="none" stroke="red" stroke-width="0.52" stroke-dasharray="1,5" d="M105.2,-379.54C103.7,-370.04 101.17,-354.06 98.85,-339.41"/>
<polygon fill="red" stroke="red" stroke-width="0.52" points="102.36,-339.2 97.33,-329.88 95.44,-340.3 102.36,-339.2"/>
</g>
<!-- 1406 -->
<g id="node23" class="node">
<title>1406</title>
<ellipse fill="white" stroke="black" cx="480.54" cy="-304.93" rx="24.04" ry="24.04"/>
<text xml:space="preserve" text-anchor="middle" x="480.54" y="-301.63" font-family="Times New Roman,serif" font-size="9.00">1406</text>
</g>
<!-- holes&#45;&gt;1406 -->
<g id="edge20" class="edge">
<title>holes&#45;&gt;1406</title>
<path fill="none" stroke="green" stroke-width="0.6" stroke-dasharray="1,5" d="M124.08,-384.16C182.17,-371.41 368.98,-330.41 446.42,-313.42"/>
<polygon fill="green" stroke="green" stroke-width="0.6" points="447.11,-316.85 456.13,-311.29 445.61,-310.01 447.11,-316.85"/>
</g>
<!-- bumpiness -->
<g id="node12" class="node">
<title>bumpiness</title>
<polygon fill="lightgray" stroke="black" points="460.67,-230.1 406.42,-230.1 406.42,-211.6 460.67,-211.6 460.67,-230.1"/>
<text xml:space="preserve" text-anchor="middle" x="433.54" y="-217.55" font-family="Times New Roman,serif" font-size="9.00">bumpiness</text>
</g>
<!-- bumpiness&#45;&gt;209 -->
<g id="edge4" class="edge">
<title>bumpiness&#45;&gt;209</title>
<path fill="none" stroke="red" stroke-width="0.11" d="M422.24,-211.1C406.3,-198.77 376.84,-175.98 355.81,-159.72"/>
<polygon fill="red" stroke="red" stroke-width="0.11" points="358.13,-157.09 348.08,-153.74 353.85,-162.62 358.13,-157.09"/>
</g>
<!-- avg_height -->
<g id="node13" class="node">
<title>avg_height</title>
<polygon fill="lightgray" stroke="black" points="321.04,-398.26 266.04,-398.26 266.04,-379.76 321.04,-379.76 321.04,-398.26"/>
<text xml:space="preserve" text-anchor="middle" x="293.54" y="-385.71" font-family="Times New Roman,serif" font-size="9.00">avg_height</text>
</g>
<!-- avg_height&#45;&gt;209 -->
<g id="edge3" class="edge">
<title>avg_height&#45;&gt;209</title>
<path fill="none" stroke="red" stroke-width="0.25" stroke-dasharray="1,5" d="M283.51,-379.57C251.96,-352 159.36,-262.57 202.54,-196.8 224.11,-163.96 269.58,-150.33 300.35,-144.74"/>
<polygon fill="red" stroke="red" stroke-width="0.25" points="300.87,-148.2 310.18,-143.14 299.75,-141.29 300.87,-148.2"/>
</g>
<!-- avg_height&#45;&gt;1406 -->
<g id="edge13" class="edge">
<title>avg_height&#45;&gt;1406</title>
<path fill="none" stroke="red" stroke-width="0.42" d="M313.2,-379.38C345.62,-365.15 410.55,-336.65 449.31,-319.64"/>
<polygon fill="red" stroke="red" stroke-width="0.42" points="450.23,-323.06 457.98,-315.83 447.41,-316.65 450.23,-323.06"/>
</g>
<!-- 1544 -->
<g id="node16" class="node">
<title>1544</title>
<ellipse fill="white" stroke="black" cx="93.54" cy="-220.85" rx="24.04" ry="24.04"/>
<text xml:space="preserve" text-anchor="middle" x="93.54" y="-217.55" font-family="Times New Roman,serif" font-size="9.00">1544</text>
</g>
<!-- 1066&#45;&gt;1406 -->
<g id="edge21" class="edge">
<title>1066&#45;&gt;1406</title>
<path fill="none" stroke="green" stroke-width="0.29" d="M480.54,-364.71C480.54,-356.91 480.54,-348.06 480.54,-339.63"/>
<polygon fill="green" stroke="green" stroke-width="0.29" points="484.04,-339.72 480.54,-329.72 477.04,-339.72 484.04,-339.72"/>
</g>
<!-- 1610&#45;&gt;209 -->
<g id="edge26" class="edge">
<title>1610&#45;&gt;209</title>
<path fill="none" stroke="green" stroke-width="0.35" d="M623.94,-280.72C622,-256.27 615.07,-218.37 591.54,-196.8 558.31,-166.35 424.49,-149.85 362.88,-143.74"/>
<polygon fill="green" stroke="green" stroke-width="0.35" points="363.42,-140.28 353.13,-142.8 362.75,-147.25 363.42,-140.28"/>
</g>
<!-- 209&#45;&gt;move_score -->
<g id="edge8" class="edge">
<title>209&#45;&gt;move_score</title>
<path fill="none" stroke="green" stroke-width="0.39" d="M311.61,-132.32C266.54,-117.34 155.71,-80.49 90.9,-58.95"/>
<polygon fill="green" stroke="green" stroke-width="0.39" points="92.06,-55.65 81.47,-55.81 89.85,-62.29 92.06,-55.65"/>
</g>
<!-- 1457 -->
<g id="node20" class="node">
<title>1457</title>
<ellipse fill="white" stroke="black" cx="540.54" cy="-220.85" rx="24.04" ry="24.04"/>
<text xml:space="preserve" text-anchor="middle" x="540.54" y="-217.55" font-family="Times New Roman,serif" font-size="9.00">1457</text>
</g>
<!-- 1457&#45;&gt;209 -->
<g id="edge18" class="edge">
<title>1457&#45;&gt;209</title>
<path fill="none" stroke="green" stroke-width="0.1" stroke-dasharray="1,5" d="M520.9,-206.76C515.13,-203.25 508.71,-199.64 502.54,-196.8 454.88,-174.92 396.17,-157.71 361.41,-148.46"/>
<polygon fill="green" stroke="green" stroke-width="0.1" points="362.57,-145.14 352.01,-146 360.79,-151.92 362.57,-145.14"/>
</g>
<!-- 1527&#45;&gt;move_score -->
<g id="edge23" class="edge">
<title>1527&#45;&gt;move_score</title>
<path fill="none" stroke="green" stroke-width="0.18" stroke-dasharray="1,5" d="M80.06,-284.65C73,-273.54 64.94,-259.02 60.54,-244.89 45.03,-195.04 41.1,-135.22 40.55,-93.61"/>
<polygon fill="green" stroke="green" stroke-width="0.18" points="44.05,-93.69 40.48,-83.71 37.05,-93.74 44.05,-93.69"/>
</g>
<!-- 1527&#45;&gt;1544 -->
<g id="edge24" class="edge">
<title>1527&#45;&gt;1544</title>
<path fill="none" stroke="green" stroke-width="0.6" d="M93.54,-280.63C93.54,-273 93.54,-264.37 93.54,-256.11"/>
<polygon fill="green" stroke="green" stroke-width="0.6" points="97.04,-256.11 93.54,-246.11 90.04,-256.11 97.04,-256.11"/>
</g>
<!-- 1433&#45;&gt;209 -->
<g id="edge16" class="edge">
<title>1433&#45;&gt;209</title>
<path fill="none" stroke="red" stroke-width="0.57" d="M560.25,-284.83C575.05,-261.65 593.96,-222.47 573.54,-196.8 547.57,-164.15 422.57,-148.94 363.1,-143.47"/>
<polygon fill="red" stroke="red" stroke-width="0.57" points="363.59,-140 353.32,-142.6 362.98,-146.97 363.59,-140"/>
</g>
<!-- 1433&#45;&gt;1457 -->
<g id="edge19" class="edge">
<title>1433&#45;&gt;1457</title>
<path fill="none" stroke="green" stroke-width="0.11" d="M544.84,-280.63C544.26,-272.74 543.61,-263.78 542.99,-255.26"/>
<polygon fill="green" stroke="green" stroke-width="0.11" points="546.48,-255.09 542.26,-245.37 539.5,-255.6 546.48,-255.09"/>
</g>
<!-- 1406&#45;&gt;209 -->
<g id="edge14" class="edge">
<title>1406&#45;&gt;209</title>
<path fill="none" stroke="green" stroke-width="0.19" stroke-dasharray="1,5" d="M484.54,-281C487.31,-257.49 487.73,-221.02 469.54,-196.8 444.12,-162.96 394.74,-149.56 362.47,-144.29"/>
<polygon fill="green" stroke="green" stroke-width="0.19" points="363.33,-140.88 352.92,-142.89 362.31,-147.81 363.33,-140.88"/>
</g>
<!-- 1406&#45;&gt;1457 -->
<g id="edge17" class="edge">
<title>1406&#45;&gt;1457</title>
<path fill="none" stroke="green" stroke-width="0.49" d="M494.46,-284.89C502.18,-274.32 511.93,-260.99 520.46,-249.32"/>
<polygon fill="green" stroke="green" stroke-width="0.49" points="523.19,-251.51 526.27,-241.38 517.54,-247.38 523.19,-251.51"/>
</g>
</g>
</svg>
