<?xml version="1.0" encoding="UTF-8" standalone="no"?>
<!DOCTYPE svg PUBLIC "-//W3C//DTD SVG 1.1//EN"
 "http://www.w3.org/Graphics/SVG/1.1/DTD/svg11.dtd">
<!-- Generated by graphviz version 13.1.0 (20250701.0955)
 -->
<!-- Pages: 1 -->
<svg width="984pt" height="398pt"
 viewBox="0.00 0.00 984.00 398.00" xmlns="http://www.w3.org/2000/svg" xmlns:xlink="http://www.w3.org/1999/xlink">
<g id="graph0" class="graph" transform="scale(1 1) rotate(0) translate(4 393.83)">
<polygon fill="white" stroke="none" points="-4,4 -4,-393.83 979.88,-393.83 979.88,4 -4,4"/>
<!-- height_0 -->
<g id="node1" class="node">
<title>height_0</title>
<polygon fill="lightgray" stroke="black" points="46.75,-389.83 0,-389.83 0,-371.33 46.75,-371.33 46.75,-389.83"/>
<text xml:space="preserve" text-anchor="middle" x="23.38" y="-377.28" font-family="Times New Roman,serif" font-size="9.00">height_0</text>
</g>
<!-- height_1 -->
<g id="node2" class="node">
<title>height_1</title>
<polygon fill="lightgray" stroke="black" points="111.75,-389.83 65,-389.83 65,-371.33 111.75,-371.33 111.75,-389.83"/>
<text xml:space="preserve" text-anchor="middle" x="88.38" y="-377.28" font-family="Times New Roman,serif" font-size="9.00">height_1</text>
</g>
<!-- 4109 -->
<g id="node19" class="node">
<title>4109</title>
<ellipse fill="white" stroke="black" cx="88.38" cy="-311.29" rx="24.04" ry="24.04"/>
<text xml:space="preserve" text-anchor="middle" x="88.38" y="-307.99" font-family="Times New Roman,serif" font-size="9.00">4109</text>
</g>
<!-- height_1&#45;&gt;4109 -->
<g id="edge13" class="edge">
<title>height_1&#45;&gt;4109</title>
<path fill="none" stroke="red" stroke-width="0.57" d="M88.38,-371.06C88.38,-364.71 88.38,-355.57 88.38,-346.4"/>
<polygon fill="red" stroke="red" stroke-width="0.57" points="91.88,-346.63 88.38,-336.63 84.88,-346.63 91.88,-346.63"/>
</g>
<!-- height_2 -->
<g id="node3" class="node">
<title>height_2</title>
<polygon fill="lightgray" stroke="black" points="176.75,-389.83 130,-389.83 130,-371.33 176.75,-371.33 176.75,-389.83"/>
<text xml:space="preserve" text-anchor="middle" x="153.38" y="-377.28" font-family="Times New Roman,serif" font-size="9.00">height_2</text>
</g>
<!-- height_3 -->
<g id="node4" class="node">
<title>height_3</title>
<polygon fill="lightgray" stroke="black" points="241.75,-389.83 195,-389.83 195,-371.33 241.75,-371.33 241.75,-389.83"/>
<text xml:space="preserve" text-anchor="middle" x="218.38" y="-377.28" font-family="Times New Roman,serif" font-size="9.00">height_3</text>
</g>
<!-- height_4 -->
<g id="node5" class="node">
<title>height_4</title>
<polygon fill="lightgray" stroke="black" points="306.75,-389.83 260,-389.83 260,-371.33 306.75,-371.33 306.75,-389.83"/>
<text xml:space="preserve" text-anchor="middle" x="283.38" y="-377.28" font-family="Times New Roman,serif" font-size="9.00">height_4</text>
</g>
<!-- height_5 -->
<g id="node6" class="node">
<title>height_5</title>
<polygon fill="lightgray" stroke="black" points="371.75,-389.83 325,-389.83 325,-371.33 371.75,-371.33 371.75,-389.83"/>
<text xml:space="preserve" text-anchor="middle" x="348.38" y="-377.28" font-family="Times New Roman,serif" font-size="9.00">height_5</text>
</g>
<!-- height_6 -->
<g id="node7" class="node">
<title>height_6</title>
<polygon fill="lightgray" stroke="black" points="436.75,-389.83 390,-389.83 390,-371.33 436.75,-371.33 436.75,-389.83"/>
<text xml:space="preserve" text-anchor="middle" x="413.38" y="-377.28" font-family="Times New Roman,serif" font-size="9.00">height_6</text>
</g>
<!-- height_7 -->
<g id="node8" class="node">
<title>height_7</title>
<polygon fill="lightgray" stroke="black" points="501.75,-389.83 455,-389.83 455,-371.33 501.75,-371.33 501.75,-389.83"/>
<text xml:space="preserve" text-anchor="middle" x="478.38" y="-377.28" font-family="Times New Roman,serif" font-size="9.00">height_7</text>
</g>
<!-- height_8 -->
<g id="node9" class="node">
<title>height_8</title>
<polygon fill="lightgray" stroke="black" points="566.75,-389.83 520,-389.83 520,-371.33 566.75,-371.33 566.75,-389.83"/>
<text xml:space="preserve" text-anchor="middle" x="543.38" y="-377.28" font-family="Times New Roman,serif" font-size="9.00">height_8</text>
</g>
<!-- height_9 -->
<g id="node10" class="node">
<title>height_9</title>
<polygon fill="lightgray" stroke="black" points="631.75,-389.83 585,-389.83 585,-371.33 631.75,-371.33 631.75,-389.83"/>
<text xml:space="preserve" text-anchor="middle" x="608.38" y="-377.28" font-family="Times New Roman,serif" font-size="9.00">height_9</text>
</g>
<!-- holes -->
<g id="node11" class="node">
<title>holes</title>
<polygon fill="lightgray" stroke="black" points="684.75,-389.83 650,-389.83 650,-371.33 684.75,-371.33 684.75,-389.83"/>
<text xml:space="preserve" text-anchor="middle" x="667.38" y="-377.28" font-family="Times New Roman,serif" font-size="9.00">holes</text>
</g>
<!-- move_score -->
<g id="node14" class="node">
<title>move_score</title>
<ellipse fill="lightblue" stroke="black" cx="747.38" cy="-209.71" rx="41.54" ry="41.54"/>
<text xml:space="preserve" text-anchor="middle" x="747.38" y="-206.41" font-family="Times New Roman,serif" font-size="9.00">move_score</text>
</g>
<!-- holes&#45;&gt;move_score -->
<g id="edge4" class="edge">
<title>holes&#45;&gt;move_score</title>
<path fill="none" stroke="red" stroke-width="0.27" d="M671.45,-370.98C681.27,-350.26 706.79,-296.38 725.54,-256.79"/>
<polygon fill="red" stroke="red" stroke-width="0.27" points="728.62,-258.48 729.74,-247.95 722.29,-255.48 728.62,-258.48"/>
</g>
<!-- 4614 -->
<g id="node17" class="node">
<title>4614</title>
<ellipse fill="white" stroke="black" cx="549.38" cy="-24.04" rx="24.04" ry="24.04"/>
<text xml:space="preserve" text-anchor="middle" x="549.38" y="-20.74" font-family="Times New Roman,serif" font-size="9.00">4614</text>
</g>
<!-- holes&#45;&gt;4614 -->
<g id="edge10" class="edge">
<title>holes&#45;&gt;4614</title>
<path fill="none" stroke="red" stroke-width="0.41" stroke-dasharray="1,5" d="M669.49,-371C678.21,-333.53 708.16,-181.9 648.38,-84.08 633.62,-59.95 604.98,-44.46 582.28,-35.44"/>
<polygon fill="red" stroke="red" stroke-width="0.41" points="583.52,-32.16 572.92,-31.95 581.07,-38.72 583.52,-32.16"/>
</g>
<!-- 5192 -->
<g id="node18" class="node">
<title>5192</title>
<ellipse fill="white" stroke="black" cx="549.38" cy="-108.12" rx="24.04" ry="24.04"/>
<text xml:space="preserve" text-anchor="middle" x="549.38" y="-104.82" font-family="Times New Roman,serif" font-size="9.00">5192</text>
</g>
<!-- holes&#45;&gt;5192 -->
<g id="edge23" class="edge">
<title>holes&#45;&gt;5192</title>
<path fill="none" stroke="green" stroke-width="0.24" d="M661.3,-371.05C655.27,-362.34 645.98,-348.29 639.38,-335.33 634.7,-326.17 585.1,-200.15 561.59,-140.28"/>
<polygon fill="green" stroke="green" stroke-width="0.24" points="564.97,-139.29 558.05,-131.26 558.45,-141.85 564.97,-139.29"/>
</g>
<!-- 4220 -->
<g id="node20" class="node">
<title>4220</title>
<ellipse fill="white" stroke="black" cx="757.38" cy="-311.29" rx="24.04" ry="24.04"/>
<text xml:space="preserve" text-anchor="middle" x="757.38" y="-307.99" font-family="Times New Roman,serif" font-size="9.00">4220</text>
</g>
<!-- holes&#45;&gt;4220 -->
<g id="edge7" class="edge">
<title>holes&#45;&gt;4220</title>
<path fill="none" stroke="red" stroke-width="0.17" d="M678.77,-371.06C691.7,-361.4 713.22,-345.31 730.48,-332.4"/>
<polygon fill="red" stroke="red" stroke-width="0.17" points="732.43,-335.31 738.35,-326.52 728.24,-329.71 732.43,-335.31"/>
</g>
<!-- 4849 -->
<g id="node21" class="node">
<title>4849</title>
<ellipse fill="white" stroke="black" cx="487.38" cy="-311.29" rx="24.04" ry="24.04"/>
<text xml:space="preserve" text-anchor="middle" x="487.38" y="-307.99" font-family="Times New Roman,serif" font-size="9.00">4849</text>
</g>
<!-- holes&#45;&gt;4849 -->
<g id="edge11" class="edge">
<title>holes&#45;&gt;4849</title>
<path fill="none" stroke="green" stroke-width="0.73" d="M649.79,-373.01C619.71,-361.76 557.95,-338.68 519.85,-324.44"/>
<polygon fill="green" stroke="green" stroke-width="0.73" points="521.42,-321.28 510.82,-321.06 518.96,-327.84 521.42,-321.28"/>
</g>
<!-- 5174 -->
<g id="node23" class="node">
<title>5174</title>
<ellipse fill="white" stroke="black" cx="615.38" cy="-108.12" rx="24.04" ry="24.04"/>
<text xml:space="preserve" text-anchor="middle" x="615.38" y="-104.82" font-family="Times New Roman,serif" font-size="9.00">5174</text>
</g>
<!-- holes&#45;&gt;5174 -->
<g id="edge21" class="edge">
<title>holes&#45;&gt;5174</title>
<path fill="none" stroke="green" stroke-width="0.24" d="M664.22,-370.87C661.11,-362.02 656.39,-347.87 653.38,-335.33 637.09,-267.74 625.34,-187.12 619.52,-142.69"/>
<polygon fill="green" stroke="green" stroke-width="0.24" points="623,-142.29 618.25,-132.82 616.05,-143.19 623,-142.29"/>
</g>
<!-- 3359 -->
<g id="node27" class="node">
<title>3359</title>
<ellipse fill="white" stroke="black" cx="823.38" cy="-311.29" rx="24.04" ry="24.04"/>
<text xml:space="preserve" text-anchor="middle" x="823.38" y="-307.99" font-family="Times New Roman,serif" font-size="9.00">3359</text>
</g>
<!-- holes&#45;&gt;3359 -->
<g id="edge6" class="edge">
<title>holes&#45;&gt;3359</title>
<path fill="none" stroke="red" stroke-width="0.19" stroke-dasharray="1,5" d="M685.09,-374.82C709.56,-367.88 754.7,-353.79 790.38,-335.33 792.34,-334.32 794.33,-333.2 796.3,-332.02"/>
<polygon fill="red" stroke="red" stroke-width="0.19" points="797.97,-335.1 804.48,-326.74 794.18,-329.22 797.97,-335.1"/>
</g>
<!-- bumpiness -->
<g id="node12" class="node">
<title>bumpiness</title>
<polygon fill="lightgray" stroke="black" points="902.5,-389.83 848.25,-389.83 848.25,-371.33 902.5,-371.33 902.5,-389.83"/>
<text xml:space="preserve" text-anchor="middle" x="875.38" y="-377.28" font-family="Times New Roman,serif" font-size="9.00">bumpiness</text>
</g>
<!-- 4092 -->
<g id="node25" class="node">
<title>4092</title>
<ellipse fill="white" stroke="black" cx="853.38" cy="-209.71" rx="24.04" ry="24.04"/>
<text xml:space="preserve" text-anchor="middle" x="853.38" y="-206.41" font-family="Times New Roman,serif" font-size="9.00">4092</text>
</g>
<!-- bumpiness&#45;&gt;4092 -->
<g id="edge5" class="edge">
<title>bumpiness&#45;&gt;4092</title>
<path fill="none" stroke="green" stroke-width="0.2" stroke-dasharray="1,5" d="M874.25,-370.98C871.25,-347.9 862.89,-283.71 857.7,-243.92"/>
<polygon fill="green" stroke="green" stroke-width="0.2" points="861.19,-243.64 856.43,-234.18 854.25,-244.55 861.19,-243.64"/>
</g>
<!-- 3581 -->
<g id="node26" class="node">
<title>3581</title>
<ellipse fill="white" stroke="black" cx="927.38" cy="-311.29" rx="24.04" ry="24.04"/>
<text xml:space="preserve" text-anchor="middle" x="927.38" y="-307.99" font-family="Times New Roman,serif" font-size="9.00">3581</text>
</g>
<!-- bumpiness&#45;&gt;3581 -->
<g id="edge3" class="edge">
<title>bumpiness&#45;&gt;3581</title>
<path fill="none" stroke="green" stroke-width="0.33" stroke-dasharray="1,5" d="M881.96,-371.06C888.21,-362.98 897.92,-350.4 906.77,-338.96"/>
<polygon fill="green" stroke="green" stroke-width="0.33" points="909.35,-341.35 912.69,-331.29 903.81,-337.07 909.35,-341.35"/>
</g>
<!-- bumpiness&#45;&gt;3359 -->
<g id="edge1" class="edge">
<title>bumpiness&#45;&gt;3359</title>
<path fill="none" stroke="red" stroke-width="0.13" d="M868.79,-371.06C862.54,-362.98 852.83,-350.4 843.98,-338.96"/>
<polygon fill="red" stroke="red" stroke-width="0.13" points="846.76,-336.84 837.88,-331.06 841.22,-341.12 846.76,-336.84"/>
</g>
<!-- avg_height -->
<g id="node13" class="node">
<title>avg_height</title>
<polygon fill="lightgray" stroke="black" points="975.88,-389.83 920.88,-389.83 920.88,-371.33 975.88,-371.33 975.88,-389.83"/>
<text xml:space="preserve" text-anchor="middle" x="948.38" y="-377.28" font-family="Times New Roman,serif" font-size="9.00">avg_height</text>
</g>
<!-- 4993 -->
<g id="node15" class="node">
<title>4993</title>
<ellipse fill="white" stroke="black" cx="757.38" cy="-108.12" rx="24.04" ry="24.04"/>
<text xml:space="preserve" text-anchor="middle" x="757.38" y="-104.82" font-family="Times New Roman,serif" font-size="9.00">4993</text>
</g>
<!-- move_score&#45;&gt;4993 -->
<g id="edge14" class="edge">
<title>move_score&#45;&gt;4993</title>
<path fill="none" stroke="green" stroke-width="0.41" stroke-dasharray="1,5" d="M751.47,-167.92C752.31,-159.57 753.18,-150.88 753.99,-142.81"/>
<polygon fill="green" stroke="green" stroke-width="0.41" points="757.47,-143.21 754.99,-132.91 750.5,-142.51 757.47,-143.21"/>
</g>
<!-- move_score&#45;&gt;4614 -->
<g id="edge9" class="edge">
<title>move_score&#45;&gt;4614</title>
<path fill="none" stroke="red" stroke-width="0.39" d="M734.53,-169.85C723.92,-142.83 706.49,-107.59 681.38,-84.08 653.46,-57.96 612.04,-42.02 583.06,-33.4"/>
<polygon fill="red" stroke="red" stroke-width="0.39" points="584.15,-30.07 573.57,-30.71 582.24,-36.8 584.15,-30.07"/>
</g>
<!-- 5058 -->
<g id="node16" class="node">
<title>5058</title>
<ellipse fill="white" stroke="black" cx="445.38" cy="-108.12" rx="24.04" ry="24.04"/>
<text xml:space="preserve" text-anchor="middle" x="445.38" y="-104.82" font-family="Times New Roman,serif" font-size="9.00">5058</text>
</g>
<!-- 5058&#45;&gt;4614 -->
<g id="edge18" class="edge">
<title>5058&#45;&gt;4614</title>
<path fill="none" stroke="green" stroke-width="0.4" stroke-dasharray="1,5" d="M463.97,-92.45C480.38,-79.49 504.5,-60.46 522.93,-45.92"/>
<polygon fill="green" stroke="green" stroke-width="0.4" points="524.78,-48.91 530.47,-39.97 520.45,-43.41 524.78,-48.91"/>
</g>
<!-- 5192&#45;&gt;4614 -->
<g id="edge24" class="edge">
<title>5192&#45;&gt;4614</title>
<path fill="none" stroke="green" stroke-width="0.54" d="M549.38,-83.82C549.38,-76.11 549.38,-67.36 549.38,-59.02"/>
<polygon fill="green" stroke="green" stroke-width="0.54" points="552.88,-59.22 549.38,-49.22 545.88,-59.22 552.88,-59.22"/>
</g>
<!-- 4849&#45;&gt;5058 -->
<g id="edge17" class="edge">
<title>4849&#45;&gt;5058</title>
<path fill="none" stroke="red" stroke-width="0.56" d="M485.96,-286.83C483.85,-258.38 478.93,-209.15 468.38,-168.17 466.01,-158.98 462.62,-149.28 459.18,-140.46"/>
<polygon fill="red" stroke="red" stroke-width="0.56" points="462.49,-139.31 455.48,-131.37 456.01,-141.95 462.49,-139.31"/>
</g>
<!-- 4849&#45;&gt;4614 -->
<g id="edge12" class="edge">
<title>4849&#45;&gt;4614</title>
<path fill="none" stroke="red" stroke-width="0.27" stroke-dasharray="1,5" d="M464.94,-301.85C444.46,-292.79 415.45,-276.25 402.38,-251.25 367.88,-185.3 367.86,-143.73 412.38,-84.08 436.91,-51.21 483.51,-36.42 515.5,-29.91"/>
<polygon fill="red" stroke="red" stroke-width="0.27" points="515.72,-33.43 524.91,-28.15 514.44,-26.55 515.72,-33.43"/>
</g>
<!-- 5008 -->
<g id="node22" class="node">
<title>5008</title>
<ellipse fill="white" stroke="black" cx="539.38" cy="-209.71" rx="24.04" ry="24.04"/>
<text xml:space="preserve" text-anchor="middle" x="539.38" y="-206.41" font-family="Times New Roman,serif" font-size="9.00">5008</text>
</g>
<!-- 4849&#45;&gt;5008 -->
<g id="edge15" class="edge">
<title>4849&#45;&gt;5008</title>
<path fill="none" stroke="red" stroke-width="0.36" stroke-dasharray="1,5" d="M498.15,-289.66C505.49,-275.6 515.33,-256.75 523.56,-241"/>
<polygon fill="red" stroke="red" stroke-width="0.36" points="526.66,-242.63 528.18,-232.14 520.45,-239.39 526.66,-242.63"/>
</g>
<!-- 5119 -->
<g id="node24" class="node">
<title>5119</title>
<ellipse fill="white" stroke="black" cx="435.38" cy="-209.71" rx="24.04" ry="24.04"/>
<text xml:space="preserve" text-anchor="middle" x="435.38" y="-206.41" font-family="Times New Roman,serif" font-size="9.00">5119</text>
</g>
<!-- 4849&#45;&gt;5119 -->
<g id="edge19" class="edge">
<title>4849&#45;&gt;5119</title>
<path fill="none" stroke="red" stroke-width="0.42" d="M476.6,-289.66C469.26,-275.6 459.42,-256.75 451.19,-241"/>
<polygon fill="red" stroke="red" stroke-width="0.42" points="454.34,-239.47 446.61,-232.22 448.14,-242.71 454.34,-239.47"/>
</g>
<!-- 5008&#45;&gt;4614 -->
<g id="edge16" class="edge">
<title>5008&#45;&gt;4614</title>
<path fill="none" stroke="red" stroke-width="0.17" d="M529.79,-187.33C519.87,-162.35 507.06,-119.85 516.38,-84.08 519.2,-73.23 524.51,-62.26 530.06,-52.77"/>
<polygon fill="red" stroke="red" stroke-width="0.17" points="532.95,-54.74 535.24,-44.4 527,-51.06 532.95,-54.74"/>
</g>
<!-- 5174&#45;&gt;4614 -->
<g id="edge22" class="edge">
<title>5174&#45;&gt;4614</title>
<path fill="none" stroke="red" stroke-width="0.15" d="M600.73,-88.91C591.82,-77.83 580.29,-63.49 570.42,-51.21"/>
<polygon fill="red" stroke="red" stroke-width="0.15" points="573.35,-49.27 564.36,-43.67 567.89,-53.66 573.35,-49.27"/>
</g>
<!-- 5119&#45;&gt;5058 -->
<g id="edge20" class="edge">
<title>5119&#45;&gt;5058</title>
<path fill="none" stroke="red" stroke-width="0.34" stroke-dasharray="1,5" d="M437.72,-185.36C439,-172.63 440.6,-156.64 442.01,-142.6"/>
<polygon fill="red" stroke="red" stroke-width="0.34" points="445.48,-143.14 442.99,-132.84 438.51,-142.44 445.48,-143.14"/>
</g>
<!-- 3359&#45;&gt;move_score -->
<g id="edge2" class="edge">
<title>3359&#45;&gt;move_score</title>
<path fill="none" stroke="green" stroke-width="0.13" d="M809.08,-291.56C800.45,-280.26 789.11,-265.4 778.51,-251.51"/>
<polygon fill="green" stroke="green" stroke-width="0.13" points="781.34,-249.45 772.5,-243.62 775.78,-253.7 781.34,-249.45"/>
</g>
<!-- 3359&#45;&gt;4092 -->
<g id="edge8" class="edge">
<title>3359&#45;&gt;4092</title>
<path fill="none" stroke="red" stroke-width="0.56" d="M830.03,-288.19C834.01,-275 839.12,-258.02 843.55,-243.31"/>
<polygon fill="red" stroke="red" stroke-width="0.56" points="846.85,-244.49 846.39,-233.9 840.15,-242.47 846.85,-244.49"/>
</g>
</g>
</svg>
